<?xml version="1.0" ?><svg data-name="Layer 1" id="Layer_1" viewBox="0 0 128 128" xmlns="http://www.w3.org/2000/svg"><defs><style>.cls-1{fill:#eaeaea;}.cls-2{fill:#d14a4a;}.cls-3{fill:#f4f4f4;}.cls-4{fill:#dd5e58;}.cls-5{fill:#f6ecd9;}.cls-6{fill:#eddfca;}</style></defs><title/><path class="cls-1" d="M54.08234,42.16065V69.45209a.80561.80561,0,0,0,.80557.80557H88.701a.80561.80561,0,0,0,.80557-.80557V42.16065"/><path class="cls-2" d="M79.70493,14.9416a8.72035,8.72035,0,0,0-7.91046,5.07886A8.712,8.712,0,1,0,63.884,32.37393H79.70493a8.71617,8.71617,0,0,0,0-17.43233ZM67.88513,26.85292a.80561.80561,0,0,1-.80557.80557H63.9202a3.96454,3.96454,0,1,1,3.96493-3.96467Zm11.78361.80583H76.50991a.80561.80561,0,0,1-.80557-.80557v-3.1591a3.96467,3.96467,0,1,1,3.9644,3.96467Z"/><rect class="cls-3" height="11.6664" rx="0.80557" ry="0.80557" width="41.55208" x="51.01843" y="30.76278"/><rect class="cls-4" height="39.49488" width="8.52824" x="67.53035" y="30.76278"/><path class="cls-5" d="M103.09367,50.56511A20.95647,20.95647,0,0,0,90.94523,46.862c-7.32617,0-14.15625,4.12988-18.27149,11.04882-.89257,1.5-3.4458,4.98926-7.87207,4.98926a7.5401,7.5401,0,0,1-7.61328-5.9209C53.91007,43.95964,42.15324,30.78,26.02677,30.78a35.75032,35.75032,0,0,0-12.17041,2.09864,1.50014,1.50014,0,0,0-.94092,1.79492l13.51123,51.0664a1.5,1.5,0,0,0,1.4502,1.11622H86.59464a1.49966,1.49966,0,0,0,1.35938-.86622l15.63574-33.56445A1.5004,1.5004,0,0,0,103.09367,50.56511Z"/><path class="cls-6" d="M104.23429,73.47234a2.5,2.5,0,0,0,0,5,7.63135,7.63135,0,0,1,0,15.26269H80.93156v-8.3789a2.5,2.5,0,0,0-5,0V93.735H59.86222v-8.3789a2.5,2.5,0,0,0-5,0V93.735H38.7924v-8.3789a2.5,2.5,0,0,0-5,0V93.735H17.90177a2.5,2.5,0,1,0,0,5h86.33252a12.63135,12.63135,0,0,0,0-25.26269Z"/><path class="cls-4" d="M92.74846,75.69792H23.76975m0,0,2.65692,10.042a1.5,1.5,0,0,0,1.4502,1.11622H86.59464a1.49966,1.49966,0,0,0,1.35938-.86622l4.79444-10.292"/></svg>