<?xml version="1.0" ?><svg data-name="Layer 1" id="Layer_1" viewBox="0 0 128 128" xmlns="http://www.w3.org/2000/svg"><defs><style>.cls-1{fill:#e9d8ce;}.cls-2{fill:#dd5e58;}.cls-3{fill:#d14a4a;}.cls-4{fill:#eaeaea;}.cls-5{fill:#f4f4f4;}.cls-6{fill:#847164;}.cls-7{fill:#e4c6b1;}</style></defs><title/><rect class="cls-1" height="34.11104" width="38.40034" x="42.64716" y="40.05955"/><path class="cls-2" d="M86.72562,43.23767A136.78981,136.78981,0,0,0,64.469,41.52362a136.78977,136.78977,0,0,0-22.25657,1.71405c2.02783-21.07973,18.3504-32.2598,30.722-30.66151,20.11918,2.59919,20.11918,15.15872,20.11918,15.15872S76.36041,23.83933,86.72562,43.23767Z"/><path class="cls-3" d="M70.48271,85.74354h13.969c10.21084,3.42389,17.64623,14.06023,17.64623,26.682H24.70593c0-12.62174,7.43539-23.25808,17.626-26.682h13.969"/><path class="cls-4" d="M76.33156,63.80838c3.1575-1.5291,4.63341-4.39423,4.63341-7.9025V45.47439h4.70009s1.12964,11.89374,5.315,18.65167c1.82377,2.94476,3.6543,6.02084,3.6543,9.757a14.8896,14.8896,0,0,1-7.252,12.77726,14.79917,14.79917,0,0,1-16.96678,14.55907c-.74348.87288-1.45336,1.68744-2.11641,2.43514a6.54992,6.54992,0,0,1-9.79443,0c-.663-.7477-1.37294-1.56226-2.11641-2.43514A14.79917,14.79917,0,0,1,39.42155,86.66029a14.8896,14.8896,0,0,1-7.252-12.77726c0-3.80079,1.74945-7.00783,3.77311-9.892,5.20929-7.42438,5.20927-18.51666,5.20927-18.51666h4.70014V55.91516c0,3.51017,1.7149,5.9619,4.6379,7.90544C50.49,63.8206,62.79707,70.3628,76.33156,63.80838Z"/><path class="cls-5" d="M79.90967,65.58252a.99944.99944,0,0,0-1.14844.39453,4.98755,4.98755,0,0,1-1.208,1.25781A5.23836,5.23836,0,0,1,70.33984,66.228a.86443.86443,0,0,1-.05957-.07617,1.023,1.023,0,0,0-.12744-.1919,4.764,4.764,0,0,0-6.44043-.74316.50574.50574,0,0,1-.63476-.00977,4.76,4.76,0,0,0-6.42627.75342.99489.99489,0,0,0-.126.189c-.02393.03223-.05664.07373-.125.15039a5.20724,5.20724,0,0,1-7.14941.93458,4.985,4.985,0,0,1-1.209-1.25782,1,1,0,0,0-1.83056.61084,9.87237,9.87237,0,0,0,17.19043,6.05469A9.8735,9.8735,0,0,0,80.59229,66.5874.9999.9999,0,0,0,79.90967,65.58252Z"/><rect class="cls-5" height="10.05501" rx="5.0275" ry="5.0275" width="49.98244" x="38.41073" y="35.41938"/><circle class="cls-5" cx="96.56131" cy="26.86848" r="6.73276"/><path class="cls-6" d="M74.29932,56.8054a2.00031,2.00031,0,0,1-1.92871-1.47559,1.40779,1.40779,0,0,0-2.72608,0A1.9998,1.9998,0,1,1,65.78516,54.28a5.40714,5.40714,0,0,1,10.44482,0,2,2,0,0,1-1.40478,2.45507A2.02081,2.02081,0,0,1,74.29932,56.8054Z"/><path class="cls-6" d="M59.08838,56.8054a2.00031,2.00031,0,0,1-1.92871-1.47559,1.4081,1.4081,0,0,0-2.72656,0A1.99981,1.99981,0,1,1,50.57373,54.28a5.40746,5.40746,0,0,1,10.44531,0,2,2,0,0,1-1.40478,2.45507A2.02075,2.02075,0,0,1,59.08838,56.8054Z"/><ellipse class="cls-7" cx="63.40195" cy="63.55414" rx="3.6179" ry="2.90431"/></svg>