<?xml version="1.0" ?><svg data-name="Layer 1" id="Layer_1" viewBox="0 0 128 128" xmlns="http://www.w3.org/2000/svg"><defs><style>.cls-1{fill:#7a9970;}.cls-2{fill:#dd5e58;}.cls-3{fill:#f6ecd9;}.cls-4{fill:#f7e4a6;}.cls-5{fill:#d14a4a;}.cls-6{fill:#e56c6c;}</style></defs><title/><path class="cls-1" d="M111.53972,89.20527c0,3.54487-5.28942,5.44559-8.05244,8.45288-2.22782,2.42479-2.67066,7.996-6.31143,9.87466-3.03632,1.56676-8.08035-1.07862-11.88112-.00365-3.37429.95434-6.14951,5.90911-9.97863,6.40009-3.53463.45321-7.50772-3.60187-11.3161-3.60187-3.80811,0-7.78092,4.05512-11.31532,3.602-3.82994-.491-6.60588-5.446-9.98078-6.40058-3.80112-1.07515-8.84555,1.56992-11.882.00288-3.64072-1.87889-4.08314-7.4501-6.31068-9.87513-2.762-3.00683-8.05094-4.90709-8.05094-8.45125,0-3.54486,5.28942-5.44558,8.05244-8.45288,2.22782-2.42479,2.67066-7.996,6.31143-9.87465,3.03632-1.56677,8.08035,1.07861,11.88112.00365,3.37429-.95435,6.14951-5.90912,9.97863-6.40009,3.53463-.45322,7.50772,3.60187,11.3161,3.60187,3.80811,0,7.78092-4.05512,11.31532-3.602,3.82994.491,6.60588,5.446,9.98078,6.40057,3.80112,1.07516,8.84555-1.56991,11.882-.00287,3.64072,1.87889,4.08314,7.4501,6.31068,9.87512C106.25075,83.76086,111.53972,85.66112,111.53972,89.20527Z"/><circle class="cls-2" cx="92.48243" cy="89.49069" r="4.54031"/><circle class="cls-2" cx="35.48602" cy="88.82731" r="4.54031"/><rect class="cls-3" height="38.79492" rx="1" ry="1" width="22.1709" x="52.91455" y="40.8641"/><path class="cls-4" d="M64.86182,13.45882a1.04014,1.04014,0,0,0-1.72461,0c-.71778,1.22364-7.01367,12.07227-7.01367,16.02735a7.87646,7.87646,0,1,0,15.75292,0C71.87646,25.53109,65.57959,14.68246,64.86182,13.45882Z"/><path class="cls-2" d="M64.86182,24.658a1.0392,1.0392,0,0,0-1.72461,0c-.59766,1.01758-3.5752,6.2002-3.5752,8.2666a4.438,4.438,0,1,0,8.876,0C68.438,30.85824,65.45947,25.67562,64.86182,24.658Z"/><path class="cls-5" d="M69.36078,85.96468a19.37757,19.37757,0,0,1,3.77838-1.00683.99952.99952,0,0,0,0-1.97461,20.90313,20.90313,0,0,0-9.15527.57306,20.89879,20.89879,0,0,0-9.1543-.57306.99952.99952,0,0,0,0,1.97461,19.38159,19.38159,0,0,1,3.77783,1.00659,21.1508,21.1508,0,0,0-9.95849,17.92309c0,.37012.00976.73829.02832,1.10254a1.00028,1.00028,0,0,0,1.57324.76758l2.71-1.89941,2.44336,1.874a1,1,0,0,0,1.60742-.8457c-.01758-.33106-.02832-.66309-.02832-.999a19.09114,19.09114,0,0,1,7.00147-14.847,19.09116,19.09116,0,0,1,7.00146,14.847c0,.33692-.01172.66993-.02832,1.001a.9996.9996,0,0,0,1.60742.84375l2.44336-1.874,2.709,1.89941a1,1,0,0,0,1.57324-.76465c.01953-.36523.02832-.73437.02832-1.10547A21.15082,21.15082,0,0,0,69.36078,85.96468Z"/><path class="cls-2" d="M66.92865,81.95942s-9.78615,7.34414-13.84221,7.34414a7.34414,7.34414,0,1,1,0-14.68828C57.1425,74.61528,66.92865,81.95942,66.92865,81.95942Z"/><path class="cls-2" d="M61.03979,81.95942s9.78615-7.34414,13.84221-7.34414a7.34414,7.34414,0,0,1,0,14.68828C70.82594,89.30356,61.03979,81.95942,61.03979,81.95942Z"/><path class="cls-6" d="M63.98422,76.27118a2.76905,2.76905,0,0,0-2.76906,2.76906v5.53814a2.76906,2.76906,0,0,0,5.53812,0V79.04024A2.769,2.769,0,0,0,63.98422,76.27118Z"/></svg>